<svg xmlns="http://www.w3.org/2000/svg" width="16" height="16" viewBox="0 0 15.999999 16.000001">
  <g font-weight="bold" font-size="30" font-family="Galano Grotesque DEMO" letter-spacing="0" word-spacing="0">
    <path d="M7.2658978 4.69017l1.9187246-1.0910397-.827685-1.448449-1.8434807 1.0534175V1.228941H4.6887872V3.204099L2.8453066 2.1506813l-.827685 1.448449L3.936346 4.69017 2.0176216 5.8000203l.827685 1.448449L4.6887873 6.195052v1.9939688h1.8246695V6.195052l1.8434806 1.0534175.827685-1.448449L7.265898 4.6901698zM12.457545 11.144894l1.9187245-1.0910395-.827685-1.448449-1.8434807 1.0534175V7.6836653H9.8804343V9.658823L8.0369537 8.6054055l-.827685 1.448449L9.127993 11.144894l-1.9187246 1.1098506.827685 1.448449 1.8434807-1.0534174v1.9939688h1.8246695v-1.9939688l1.8434806 1.0534175.827685-1.448449-1.9187245-1.1098506z" style="line-height:125%;-inkscape-font-specification:'Galano Grotesque DEMO Bold'"/>
  </g>
</svg>
